<svg xmlns="http://www.w3.org/2000/svg" width="320" height="220" viewBox="0 0 320 220" fill="none">
  <rect x="40" y="34" width="240" height="152" rx="18" fill="#FFFFFF" fill-opacity="0.96"/>
  <rect x="41" y="35" width="238" height="150" rx="17" stroke="#3F8F8C" stroke-opacity="0.58" stroke-width="2"/>

  <!-- plus badge intentionally inside the card bounds -->
  <circle cx="248" cy="62" r="15" fill="#3F8F8C"/>
  <path d="M248 56V68" stroke="#FAF8F6" stroke-width="2.5" stroke-linecap="round"/>
  <path d="M242 62H254" stroke="#FAF8F6" stroke-width="2.5" stroke-linecap="round"/>

  <!-- shared header placeholders -->
  <rect x="68" y="62" width="92" height="7" rx="3.5" fill="#3F8F8C" fill-opacity="0.28"/>
  <rect x="168" y="62" width="34" height="7" rx="3.5" fill="#A7D0C9" fill-opacity="0.78"/>

  <rect x="78" y="90" width="10" height="10" rx="2" fill="#A7D0C9" fill-opacity="0.78"/>
  <rect x="100" y="92" width="104" height="7" rx="3.5" fill="#3F8F8C" fill-opacity="0.72"/>
  <rect x="212" y="92" width="36" height="7" rx="3.5" fill="#A7D0C9" fill-opacity="0.28"/>

  <circle cx="83" cy="119" r="5.3" fill="#F2A82F"/>
  <rect x="100" y="116" width="90" height="7" rx="3.5" fill="#3F8F8C" fill-opacity="0.72"/>
  <rect x="198" y="116" width="48" height="7" rx="3.5" fill="#A7D0C9" fill-opacity="0.28"/>

  <path d="M76 146H90" stroke="#A7D0C9" stroke-opacity="0.78" stroke-width="2.4" stroke-linecap="round"/>
  <path d="M83 139V153" stroke="#A7D0C9" stroke-opacity="0.78" stroke-width="2.4" stroke-linecap="round"/>
  <rect x="100" y="143" width="98" height="7" rx="3.5" fill="#3F8F8C" fill-opacity="0.72"/>
  <rect x="206" y="143" width="40" height="7" rx="3.5" fill="#A7D0C9" fill-opacity="0.28"/>
</svg>
